<svg xmlns="http://www.w3.org/2000/svg" viewBox="0 0 15.02 14.01"><defs><style>.cls-1{opacity:0.99;isolation:isolate;}.cls-2{fill:#fff;}</style></defs><title>blender-icon</title><g id="Ebene_2" data-name="Ebene 2"><g id="svg2"><g id="g8599" class="cls-1"><path id="path8595" class="cls-2" d="M8.69.27A1,1,0,0,0,8,0a1,1,0,0,0-.62,1.74L8.71,3H2A1,1,0,1,0,2,5H5.1L.35,9.26a1,1,0,0,0,1.34,1.5L4,8.66a5.5,5.5,0,0,0,11-.15,5.46,5.46,0,0,0-1.73-4ZM9.52,5A3.5,3.5,0,1,1,6,8.51,3.49,3.49,0,0,1,9.52,5Z"/><path id="path8597" class="cls-2" d="M11.23,8.51A1.71,1.71,0,0,1,9.5,10.22h0A1.71,1.71,0,0,1,7.77,8.51h0A1.71,1.71,0,0,1,9.5,6.8h0a1.71,1.71,0,0,1,1.73,1.71Z"/></g></g></g></svg>