<svg id="Layer_1" data-name="Layer 1" xmlns="http://www.w3.org/2000/svg" viewBox="0 0 100 100"><defs><style>.cls-1{fill:none;stroke:#fff;stroke-linecap:round;stroke-linejoin:round;stroke-width:5px;}</style></defs><title>cog</title><circle class="cls-1" cx="50.39" cy="50.45" r="12.1"/><path id="Path_23" data-name="Path 23" class="cls-1" d="M41.22,28.24l-2.83-6a1.4,1.4,0,0,1,1-2l9.73-1.9a1.41,1.41,0,0,1,1.67,1.32l.31,7A1.39,1.39,0,0,0,52.24,28l6.31,1.19a1.41,1.41,0,0,0,1.56-.85l2.5-6a1.4,1.4,0,0,1,2.12-.6l7.11,5.17a1.4,1.4,0,0,1,.22,2.08l-4.5,5a1.4,1.4,0,0,0-.1,1.75l3.9,5.49a1.4,1.4,0,0,0,1.73.46l5.74-2.61a1.4,1.4,0,0,1,2,1l1.68,8.73a1.4,1.4,0,0,1-1.38,1.67H73.83a1.41,1.41,0,0,0-1.4,1.25l-.72,6.52a1.42,1.42,0,0,0,.77,1.41L79,62.94A1.4,1.4,0,0,1,79.47,65l-5.35,7.3a1.4,1.4,0,0,1-2.17.11l-4.29-4.72a1.41,1.41,0,0,0-1.87-.19l-5.19,3.8A1.41,1.41,0,0,0,60.15,73l2.41,5.24a1.41,1.41,0,0,1-1,2L52.4,82.1a1.4,1.4,0,0,1-1.68-1.37V74.31a1.4,1.4,0,0,0-1.24-1.39l-6.71-.8a1.4,1.4,0,0,0-1.43.79l-2.62,5.54a1.42,1.42,0,0,1-2,.59l-7.78-4.93a1.41,1.41,0,0,1-.14-2.28l4.6-3.77a1.4,1.4,0,0,0,.24-1.93l-4.42-5.91a1.4,1.4,0,0,0-1.83-.38L22.47,62.7a1.41,1.41,0,0,1-2.09-.94l-1.93-9.59a1.4,1.4,0,0,1,1.37-1.68H26a1.4,1.4,0,0,0,1.39-1.24l.91-7.51a1.43,1.43,0,0,0-.72-1.41l-5.45-2.94a1.4,1.4,0,0,1-.48-2l4.74-6.76a1.4,1.4,0,0,1,2-.29l5.84,4.63a1.42,1.42,0,0,0,1.62.1l4.8-3A1.4,1.4,0,0,0,41.22,28.24Z"/></svg>