<svg xmlns="http://www.w3.org/2000/svg" viewBox="0 0 14 13.94"><defs><style>.cls-1{fill:#fff;opacity:0.6;isolation:isolate;}</style></defs><title>heart</title><g id="Ebene_2" data-name="Ebene 2"><g id="svg2"><g id="layer8"><path id="path6081" class="cls-1" d="M3.32,0A3.63,3.63,0,0,0,0,3.94,9.69,9.69,0,0,0,2.39,9.65a31.12,31.12,0,0,0,4,4.16.46.46,0,0,0,.33.13h.5a.46.46,0,0,0,.33-.13,31.12,31.12,0,0,0,4-4.16A9.69,9.69,0,0,0,14,3.94,3.63,3.63,0,0,0,10.68,0,3.83,3.83,0,0,0,7,2.7,3.83,3.83,0,0,0,3.32,0Zm.05,1A2.86,2.86,0,0,1,6.26,3.53a.49.49,0,0,0,.49.41h.5a.49.49,0,0,0,.49-.41A2.86,2.86,0,0,1,10.63,1c1.23.06,2.37.89,2.37,2.94A8.85,8.85,0,0,1,10.82,9,29.55,29.55,0,0,1,7,12.94H7A29.55,29.55,0,0,1,3.18,9,8.85,8.85,0,0,1,1,3.94C1,1.89,2.14,1.06,3.37,1Z"/></g></g></g></svg>