<svg xmlns="http://www.w3.org/2000/svg" viewBox="0 0 14 14"><defs><style>.cls-1{isolation:isolate;}.cls-2{fill:#fff;}</style></defs><title>settings</title><g id="Ebene_2" data-name="Ebene 2"><g id="svg2"><g id="g13226" class="cls-1"><path id="path52982-3" class="cls-2" d="M6,0,5.84,1.91a4.35,4.35,0,0,0-1.59.59L2.5,1,1,2.5,2.5,4.25a4.35,4.35,0,0,0-.59,1.59L0,6V8l1.91.16A4.35,4.35,0,0,0,2.5,9.75L1,11.5,2.5,13l1.75-1.5a4.35,4.35,0,0,0,1.59.59L6,14H8l.16-1.91a4.35,4.35,0,0,0,1.59-.59L11.5,13,13,11.5,11.5,9.75a4.35,4.35,0,0,0,.59-1.59L14,8V6l-1.91-.16a4.35,4.35,0,0,0-.59-1.59L13,2.5,11.5,1,9.75,2.5a4.35,4.35,0,0,0-1.59-.59L8,0H6ZM7,5A2,2,0,1,1,5,7,2,2,0,0,1,7,5Z"/></g></g></g></svg>