<svg xmlns="http://www.w3.org/2000/svg" viewBox="0 0 14 14.01"><defs><style>.cls-1{fill:#fff;}</style></defs><title>update</title><g id="Ebene_2" data-name="Ebene 2"><g id="svg2"><path id="path13235" class="cls-1" d="M13.5,0a.5.5,0,0,0-.5.51h0V4.3L10.88,2.18l0,0h0A.76.76,0,0,0,10.67,2,6.21,6.21,0,0,0,4.81.16,6.61,6.61,0,0,0,0,4.33.49.49,0,0,0,.32,5,.5.5,0,0,0,1,4.7v0A5.64,5.64,0,0,1,5,1.13a5.1,5.1,0,0,1,5.13,1.73h0l0,0L12.3,5H8.5A.49.49,0,0,0,8,5.5.5.5,0,0,0,8.49,6h5a.5.5,0,0,0,.5-.5v-5A.49.49,0,0,0,13.51,0Z"/><path id="path13252" class="cls-1" d="M.5,8a.5.5,0,0,0-.5.5v5A.51.51,0,0,0,.49,14a.5.5,0,0,0,.51-.5H1V9.71l2.12,2.12,0,0h0a.62.62,0,0,0,.19.12A6.21,6.21,0,0,0,9.2,13.85,6.63,6.63,0,0,0,14,9.68.5.5,0,0,0,13.68,9a.52.52,0,0,0-.65.3h0a5.62,5.62,0,0,1-4,3.55,5.1,5.1,0,0,1-5.12-1.73h0l0,0L1.71,9H5.5a.5.5,0,1,0,0-1H.5Z"/></g></g></svg>